<?xml version="1.0" standalone="no"?>
<!DOCTYPE svg PUBLIC "-//W3C//DTD SVG 20010904//EN"
 "http://www.w3.org/TR/2001/REC-SVG-20010904/DTD/svg10.dtd">
<svg version="1.0" xmlns="http://www.w3.org/2000/svg"
 width="512.000000pt" height="512.000000pt" viewBox="0 0 512.000000 512.000000"
 preserveAspectRatio="xMidYMid meet">

<g transform="translate(0.000000,512.000000) scale(0.100000,-0.100000)"
fill="#000000" stroke="none">
<path d="M497 5106 c-55 -20 -103 -61 -134 -114 l-28 -47 -3 -1396 -2 -1396
-75 -6 c-123 -9 -206 -68 -241 -170 -12 -36 -14 -174 -12 -922 l3 -880 28 -47
c31 -53 79 -94 134 -114 59 -21 2083 -20 2142 1 61 21 104 58 137 117 l29 53
3 488 3 487 162 -2 162 -3 3 -45 c5 -92 35 -246 64 -329 221 -630 915 -945
1528 -694 433 177 719 602 720 1068 1 472 -290 897 -734 1076 l-91 36 0 269 0
269 325 5 c309 5 327 6 365 27 47 25 85 64 111 113 18 33 19 76 22 828 2 517
-1 806 -8 831 -15 56 -62 116 -117 148 l-48 28 -327 3 -328 3 0 72 c0 48 -7
85 -19 112 -23 51 -98 118 -149 133 -61 19 -3573 16 -3625 -2z m3608 -181 c21
-20 25 -34 25 -80 l0 -55 -639 0 c-534 0 -645 -2 -680 -15 -102 -35 -159 -118
-168 -240 l-6 -75 -1068 0 -1069 0 0 225 c0 212 1 226 20 245 20 20 33 20
1790 20 l1771 0 24 -25z m823 -325 l22 -21 0 -774 c0 -425 -3 -781 -6 -790
-16 -42 -45 -45 -421 -45 l-358 -1 -100 -135 c-135 -183 -136 -184 -183 -184
-47 0 -52 5 -192 193 l-94 127 -359 0 c-366 0 -386 2 -414 39 -10 12 -12 197
-13 790 l0 775 22 23 21 23 1027 0 c1019 0 1026 0 1048 -20z m-3608 -1380 l0
-1070 -410 0 -410 0 0 1070 0 1070 410 0 410 0 0 -1070z m1320 442 c0 -690 0
-692 60 -764 16 -20 53 -48 82 -62 l52 -26 337 0 337 0 100 -134 c121 -160
159 -189 262 -194 86 -4 156 30 217 106 l43 53 0 -169 0 -169 -127 5 c-213 7
-396 -35 -578 -131 -302 -162 -515 -442 -590 -779 l-17 -78 -168 0 -169 0 -3
323 c-3 291 -5 325 -22 357 -26 49 -74 98 -121 123 -39 21 -52 22 -442 25
l-403 3 0 1070 0 1069 575 0 575 0 0 -628z m1564 -1546 c347 -88 622 -358 716
-701 31 -113 39 -331 16 -444 -42 -207 -126 -362 -275 -512 -150 -149 -305
-233 -512 -275 -113 -23 -331 -15 -443 15 -280 77 -520 281 -642 547 -60 129
-86 248 -87 399 -1 72 5 157 12 190 67 319 255 567 536 707 106 53 203 81 350
102 66 9 238 -6 329 -28z m-1919 -161 l25 -24 0 -857 0 -858 -22 -23 -21 -23
-1029 0 c-1015 0 -1028 0 -1048 20 -20 20 -20 33 -20 884 l0 865 26 20 c27 21
30 21 1046 21 l1019 0 24 -25z"/>
<path d="M660 4705 l0 -86 83 3 82 3 3 83 3 82 -86 0 -85 0 0 -85z"/>
<path d="M992 4708 l3 -83 80 0 80 0 3 83 3 82 -86 0 -86 0 3 -82z"/>
<path d="M1322 4708 l3 -83 80 0 80 0 3 83 3 82 -86 0 -86 0 3 -82z"/>
<path d="M4384 4451 c-97 -25 -186 -99 -227 -189 -16 -36 -22 -67 -22 -129 l0
-83 -145 -76 c-80 -43 -149 -77 -155 -77 -5 0 -177 89 -381 197 -256 135 -380
196 -402 196 -62 0 -100 -70 -65 -118 13 -18 132 -87 341 -197 177 -93 322
-172 322 -176 0 -3 -143 -81 -317 -173 -175 -92 -327 -176 -337 -187 -28 -26
-26 -83 2 -111 41 -42 65 -33 461 178 l375 198 150 -78 151 -79 0 -81 c1 -104
27 -166 99 -234 163 -154 424 -106 523 96 24 49 28 69 28 142 -1 72 -5 93 -27
136 -50 96 -113 149 -211 179 -25 8 -36 15 -27 18 124 41 192 94 237 185 24
49 28 69 27 142 0 98 -20 150 -84 223 -70 79 -215 124 -316 98z m173 -189 c66
-47 84 -156 38 -225 -59 -86 -177 -97 -251 -23 -77 77 -57 211 38 260 46 23
134 17 175 -12z m-218 -438 c25 -9 53 -18 61 -21 9 -3 -2 -10 -27 -18 -48 -15
-123 -56 -143 -79 -11 -14 -24 -10 -111 36 -55 29 -99 55 -99 58 0 3 44 28 98
56 l97 51 39 -33 c21 -19 60 -41 85 -50z m197 -210 c49 -23 77 -67 82 -131 5
-63 -10 -104 -50 -138 -149 -125 -353 64 -240 223 42 58 137 79 208 46z"/>
<path d="M660 4045 l0 -85 248 2 247 3 3 83 3 82 -251 0 -250 0 0 -85z"/>
<path d="M660 3715 l0 -85 248 2 247 3 3 83 3 82 -251 0 -250 0 0 -85z"/>
<path d="M660 3385 l0 -85 248 2 247 3 3 83 3 82 -251 0 -250 0 0 -85z"/>
<path d="M660 3055 l0 -85 248 2 247 3 0 80 0 80 -247 3 -248 2 0 -85z"/>
<path d="M660 2725 l0 -85 248 2 247 3 0 80 0 80 -247 3 -248 2 0 -85z"/>
<path d="M660 2395 l0 -85 248 2 247 3 0 80 0 80 -247 3 -248 2 0 -85z"/>
<path d="M1650 3715 l0 -415 415 0 415 0 0 415 0 415 -415 0 -415 0 0 -415z
m660 0 l0 -245 -245 0 -245 0 0 245 0 245 245 0 245 0 0 -245z"/>
<path d="M1650 2725 l0 -415 415 0 415 0 0 415 0 415 -415 0 -415 0 0 -415z
m660 0 l0 -245 -245 0 -245 0 0 245 0 245 245 0 245 0 0 -245z"/>
<path d="M3435 1808 c-46 -25 -45 -9 -45 -653 l0 -612 23 -21 c14 -13 36 -22
55 -22 36 0 1197 575 1222 605 18 22 18 78 0 100 -15 19 -1202 615 -1223 615
-7 0 -21 -6 -32 -12z m995 -653 c0 -3 -198 -104 -440 -225 l-440 -220 0 445 0
445 440 -220 c242 -121 440 -222 440 -225z"/>
<path d="M500 1402 l0 -418 -52 -34 c-32 -22 -64 -54 -83 -84 -26 -43 -30 -59
-30 -120 1 -53 6 -81 22 -112 24 -45 81 -100 119 -114 23 -9 24 -14 24 -100
l0 -90 80 0 80 0 0 88 0 88 53 34 c99 66 138 193 90 300 -23 51 -72 103 -114
120 l-29 12 0 424 0 424 -80 0 -80 0 0 -418z m138 -608 c37 -41 26 -95 -25
-122 -69 -37 -136 35 -107 113 9 22 63 46 89 39 11 -3 30 -17 43 -30z"/>
<path d="M1160 1567 l0 -253 -52 -34 c-32 -22 -64 -54 -83 -84 -26 -43 -30
-59 -30 -120 1 -53 6 -81 22 -112 24 -45 81 -100 119 -114 l24 -10 0 -255 0
-255 80 0 80 0 0 254 0 254 45 26 c142 84 161 272 38 391 -20 19 -47 38 -60
41 l-23 6 0 259 0 259 -80 0 -80 0 0 -253z m138 -443 c37 -41 26 -95 -25 -122
-69 -37 -136 35 -107 113 9 22 63 46 89 39 11 -3 30 -17 43 -30z"/>
<path d="M1820 1647 c0 -173 0 -174 -24 -185 -40 -18 -96 -73 -119 -116 -29
-56 -30 -155 0 -212 26 -49 75 -98 114 -114 l29 -12 0 -339 0 -339 80 0 80 0
0 339 c0 337 0 340 21 346 32 10 98 74 119 114 59 117 12 264 -104 326 l-36
20 0 172 0 173 -80 0 -80 0 0 -173z m135 -352 c50 -49 17 -135 -53 -135 -48 0
-82 32 -82 77 0 44 37 83 80 83 19 0 40 -9 55 -25z"/>
</g>
</svg>
